<svg viewBox="0 0 900 220" xmlns="http://www.w3.org/2000/svg">
  <rect width="900" height="220" fill="#003366"/>
  <g transform="translate(14,10) scale(0.9)">
    <path d="M 12.97,127.48 L 73.25,188.00 L 98.67,187.03 L 149.75,135.71 L 167.66,135.71 L 124.33,179.77 L 131.59,187.03 L 187.03,131.59 L 184.85,126.27 L 145.88,126.27 L 93.83,177.59 L 77.12,178.56 L 20.23,121.43 Z M 187.03,66.47 L 133.77,12.00 L 103.03,12.00 L 29.43,86.08 L 36.69,92.13 L 110.05,18.54 L 125.78,18.54 L 167.91,59.45 L 148.78,60.42 L 113.92,26.53 L 107.87,33.79 L 144.91,70.83 L 184.85,70.83 Z M 69.13,12.00 L 13.94,67.44 L 12.00,92.86 L 88.02,170.57 L 94.07,162.34 L 21.44,88.98 L 21.44,74.22 L 78.57,17.33 L 75.67,12.00 Z" fill="#FFFFFF" fill-rule="evenodd"/>
    <circle cx="101.57" cy="98.67" r="17.91" fill="#3399FF"/>
  </g>
  <text x="235" y="118" font-family="Archivo Black" font-size="64" fill="#FFFFFF" letter-spacing="1">CFO AI</text>
  <text x="237" y="160" font-family="Manrope ExtraBold" font-size="30" fill="#FFFFFF" letter-spacing="3">FINANCIAL OS</text>
</svg>